<svg width="108" height="11" viewBox="0 0 108 11" fill="none" xmlns="http://www.w3.org/2000/svg">
<path d="M6.357 7.985H2.405L1.677 10H0.429L3.705 0.991H5.07L8.333 10H7.085L6.357 7.985ZM6.019 7.023L4.381 2.447L2.743 7.023H6.019ZM11.2038 3.851V8.05C11.2038 8.39667 11.2774 8.64367 11.4248 8.791C11.5721 8.92967 11.8278 8.999 12.1918 8.999H13.0628V10H11.9968C11.3381 10 10.8441 9.84833 10.5148 9.545C10.1854 9.24167 10.0208 8.74333 10.0208 8.05V3.851H9.09777V2.876H10.0208V1.082H11.2038V2.876H13.0628V3.851H11.2038ZM15.9391 3.851V8.05C15.9391 8.39667 16.0128 8.64367 16.1601 8.791C16.3075 8.92967 16.5631 8.999 16.9271 8.999H17.7981V10H16.7321C16.0735 10 15.5795 9.84833 15.2501 9.545C14.9208 9.24167 14.7561 8.74333 14.7561 8.05V3.851H13.8331V2.876H14.7561V1.082H15.9391V2.876H17.7981V3.851H15.9391ZM18.7895 6.412C18.7895 5.684 18.9368 5.047 19.2315 4.501C19.5261 3.94633 19.9291 3.51733 20.4405 3.214C20.9605 2.91067 21.5368 2.759 22.1695 2.759C22.7935 2.759 23.3351 2.89333 23.7945 3.162C24.2538 3.43067 24.5961 3.76867 24.8215 4.176V2.876H26.0175V10H24.8215V8.674C24.5875 9.09 24.2365 9.43667 23.7685 9.714C23.3091 9.98267 22.7718 10.117 22.1565 10.117C21.5238 10.117 20.9518 9.961 20.4405 9.649C19.9291 9.337 19.5261 8.89933 19.2315 8.336C18.9368 7.77267 18.7895 7.13133 18.7895 6.412ZM24.8215 6.425C24.8215 5.88767 24.7131 5.41967 24.4965 5.021C24.2798 4.62233 23.9851 4.319 23.6125 4.111C23.2485 3.89433 22.8455 3.786 22.4035 3.786C21.9615 3.786 21.5585 3.89 21.1945 4.098C20.8305 4.306 20.5401 4.60933 20.3235 5.008C20.1068 5.40667 19.9985 5.87467 19.9985 6.412C19.9985 6.958 20.1068 7.43467 20.3235 7.842C20.5401 8.24067 20.8305 8.54833 21.1945 8.765C21.5585 8.973 21.9615 9.077 22.4035 9.077C22.8455 9.077 23.2485 8.973 23.6125 8.765C23.9851 8.54833 24.2798 8.24067 24.4965 7.842C24.7131 7.43467 24.8215 6.96233 24.8215 6.425ZM27.5746 6.425C27.5746 5.68833 27.722 5.047 28.0166 4.501C28.3113 3.94633 28.7186 3.51733 29.2386 3.214C29.7673 2.91067 30.3696 2.759 31.0456 2.759C31.921 2.759 32.6403 2.97133 33.2036 3.396C33.7756 3.82067 34.1526 4.41 34.3346 5.164H33.0606C32.9393 4.73067 32.701 4.38833 32.3456 4.137C31.999 3.88567 31.5656 3.76 31.0456 3.76C30.3696 3.76 29.8236 3.994 29.4076 4.462C28.9916 4.92133 28.7836 5.57567 28.7836 6.425C28.7836 7.283 28.9916 7.946 29.4076 8.414C29.8236 8.882 30.3696 9.116 31.0456 9.116C31.5656 9.116 31.999 8.99467 32.3456 8.752C32.6923 8.50933 32.9306 8.16267 33.0606 7.712H34.3346C34.144 8.44 33.7626 9.025 33.1906 9.467C32.6186 9.90033 31.9036 10.117 31.0456 10.117C30.3696 10.117 29.7673 9.96533 29.2386 9.662C28.7186 9.35867 28.3113 8.92967 28.0166 8.375C27.722 7.82033 27.5746 7.17033 27.5746 6.425ZM39.4491 2.746C39.9864 2.746 40.4718 2.863 40.9051 3.097C41.3384 3.32233 41.6764 3.66467 41.9191 4.124C42.1704 4.58333 42.2961 5.14233 42.2961 5.801V10H41.1261V5.97C41.1261 5.25933 40.9484 4.71767 40.5931 4.345C40.2378 3.96367 39.7524 3.773 39.1371 3.773C38.5131 3.773 38.0148 3.968 37.6421 4.358C37.2781 4.748 37.0961 5.31567 37.0961 6.061V10H35.9131V0.38H37.0961V3.89C37.3301 3.526 37.6508 3.24433 38.0581 3.045C38.4741 2.84567 38.9378 2.746 39.4491 2.746ZM52.7955 2.746C53.3502 2.746 53.8442 2.863 54.2775 3.097C54.7109 3.32233 55.0532 3.66467 55.3045 4.124C55.5559 4.58333 55.6815 5.14233 55.6815 5.801V10H54.5115V5.97C54.5115 5.25933 54.3339 4.71767 53.9785 4.345C53.6319 3.96367 53.1595 3.773 52.5615 3.773C51.9462 3.773 51.4565 3.97233 51.0925 4.371C50.7285 4.761 50.5465 5.32867 50.5465 6.074V10H49.3765V5.97C49.3765 5.25933 49.1989 4.71767 48.8435 4.345C48.4969 3.96367 48.0245 3.773 47.4265 3.773C46.8112 3.773 46.3215 3.97233 45.9575 4.371C45.5935 4.761 45.4115 5.32867 45.4115 6.074V10H44.2285V2.876H45.4115V3.903C45.6455 3.53033 45.9575 3.24433 46.3475 3.045C46.7462 2.84567 47.1839 2.746 47.6605 2.746C48.2585 2.746 48.7872 2.88033 49.2465 3.149C49.7059 3.41767 50.0482 3.812 50.2735 4.332C50.4729 3.82933 50.8022 3.43933 51.2615 3.162C51.7209 2.88467 52.2322 2.746 52.7955 2.746ZM64.1221 6.165C64.1221 6.39033 64.1091 6.62867 64.0831 6.88H58.3891C58.4324 7.582 58.6708 8.13233 59.1041 8.531C59.5461 8.921 60.0791 9.116 60.7031 9.116C61.2144 9.116 61.6391 8.999 61.9771 8.765C62.3238 8.52233 62.5664 8.20167 62.7051 7.803H63.9791C63.7884 8.48767 63.4071 9.04667 62.8351 9.48C62.2631 9.90467 61.5524 10.117 60.7031 10.117C60.0271 10.117 59.4204 9.96533 58.8831 9.662C58.3544 9.35867 57.9384 8.92967 57.6351 8.375C57.3318 7.81167 57.1801 7.16167 57.1801 6.425C57.1801 5.68833 57.3274 5.04267 57.6221 4.488C57.9168 3.93333 58.3284 3.50867 58.8571 3.214C59.3944 2.91067 60.0098 2.759 60.7031 2.759C61.3791 2.759 61.9771 2.90633 62.4971 3.201C63.0171 3.49567 63.4158 3.903 63.6931 4.423C63.9791 4.93433 64.1221 5.515 64.1221 6.165ZM62.9001 5.918C62.9001 5.46733 62.8004 5.08167 62.6011 4.761C62.4018 4.43167 62.1288 4.18467 61.7821 4.02C61.4441 3.84667 61.0671 3.76 60.6511 3.76C60.0531 3.76 59.5418 3.95067 59.1171 4.332C58.7011 4.71333 58.4628 5.242 58.4021 5.918H62.9001ZM69.1546 2.746C70.0213 2.746 70.7233 3.01033 71.2606 3.539C71.798 4.059 72.0666 4.813 72.0666 5.801V10H70.8966V5.97C70.8966 5.25933 70.719 4.71767 70.3636 4.345C70.0083 3.96367 69.523 3.773 68.9076 3.773C68.2836 3.773 67.7853 3.968 67.4126 4.358C67.0486 4.748 66.8666 5.31567 66.8666 6.061V10H65.6836V2.876H66.8666V3.89C67.1006 3.526 67.417 3.24433 67.8156 3.045C68.223 2.84567 68.6693 2.746 69.1546 2.746ZM75.442 3.851V8.05C75.442 8.39667 75.5157 8.64367 75.663 8.791C75.8104 8.92967 76.066 8.999 76.43 8.999H77.301V10H76.235C75.5764 10 75.0824 9.84833 74.753 9.545C74.4237 9.24167 74.259 8.74333 74.259 8.05V3.851H73.336V2.876H74.259V1.082H75.442V2.876H77.301V3.851H75.442ZM78.2274 1.68V0.600999H80.6714V10H79.4754V1.68H78.2274ZM83.2755 10.078C83.0501 10.078 82.8595 10 82.7035 9.844C82.5475 9.688 82.4695 9.49733 82.4695 9.272C82.4695 9.04667 82.5475 8.856 82.7035 8.7C82.8595 8.544 83.0501 8.466 83.2755 8.466C83.4921 8.466 83.6741 8.544 83.8215 8.7C83.9775 8.856 84.0555 9.04667 84.0555 9.272C84.0555 9.49733 83.9775 9.688 83.8215 9.844C83.6741 10 83.4921 10.078 83.2755 10.078ZM91.686 3.591C91.686 4.345 91.426 4.97333 90.906 5.476C90.3946 5.97 89.6103 6.217 88.553 6.217H86.811V10H85.628V0.939H88.553C89.5756 0.939 90.3513 1.186 90.88 1.68C91.4173 2.174 91.686 2.811 91.686 3.591ZM88.553 5.242C89.2116 5.242 89.697 5.099 90.009 4.813C90.321 4.527 90.477 4.11967 90.477 3.591C90.477 2.473 89.8356 1.914 88.553 1.914H86.811V5.242H88.553ZM95.9773 0.939C96.9653 0.939 97.8189 1.12533 98.5383 1.498C99.2663 1.862 99.8209 2.38633 100.202 3.071C100.592 3.75567 100.787 4.56167 100.787 5.489C100.787 6.41633 100.592 7.22233 100.202 7.907C99.8209 8.583 99.2663 9.103 98.5383 9.467C97.8189 9.82233 96.9653 10 95.9773 10H93.1563V0.939H95.9773ZM95.9773 9.025C97.1473 9.025 98.0399 8.71733 98.6553 8.102C99.2706 7.478 99.5783 6.607 99.5783 5.489C99.5783 4.36233 99.2663 3.48267 98.6423 2.85C98.0269 2.21733 97.1386 1.901 95.9773 1.901H94.3393V9.025H95.9773ZM107.47 0.939V1.901H103.531V4.956H106.729V5.918H103.531V10H102.348V0.939H107.47Z" fill="#885E88"/>
</svg>
