<svg width="17" height="20" viewBox="0 0 17 20" fill="none" xmlns="http://www.w3.org/2000/svg">
<path d="M15.4884 11.4792L9.49992 17.5217C7.55476 19.485 4.40076 19.4852 2.45529 17.5222C0.509825 15.5592 0.509642 12.3762 2.45481 10.4129L10.9087 1.88138C12.0759 0.703246 13.9684 0.703062 15.1357 1.88089C16.3031 3.05871 16.3033 4.96859 15.1362 6.14666L7.38668 13.9673C6.99251 14.3473 6.37195 14.3473 5.97785 13.9673C5.58964 13.5744 5.58964 12.9385 5.97785 12.5456L11.2609 7.21291C11.2633 7.21058 11.2657 7.20819 11.2681 7.20573C11.4606 7.00746 11.4574 6.68921 11.2609 6.49492C11.0644 6.30057 10.7491 6.30382 10.5565 6.5021L5.27344 11.8347C5.27319 11.8349 5.27295 11.8352 5.27271 11.8354C4.49502 12.6206 4.49538 13.8934 5.27344 14.6782C6.06189 15.4377 7.30264 15.4377 8.09109 14.6782L15.8406 6.85754C17.3866 5.28862 17.3864 2.75402 15.8401 1.18535C14.2879 -0.389278 11.7647 -0.395967 10.2043 1.1705L1.75039 9.70204C0.629619 10.8333 0 12.3677 0 13.9674C0 17.2991 2.6764 20 5.97785 20C7.56412 20.0045 9.08611 19.368 10.2043 18.2326L16.1928 12.1901C16.1952 12.1877 16.1976 12.1853 16.1999 12.1829C16.3925 11.9847 16.3892 11.6664 16.1928 11.4721C15.9964 11.2778 15.681 11.281 15.4884 11.4792Z" fill="black"/>
</svg>
