<svg width="18" height="4" viewBox="0 0 18 4" fill="none" xmlns="http://www.w3.org/2000/svg">
<path d="M8.99995 3.6C9.99406 3.6 10.8 2.79411 10.8 1.8C10.8 0.805887 9.99406 0 8.99995 0C8.00584 0 7.19995 0.805887 7.19995 1.8C7.19995 2.79411 8.00584 3.6 8.99995 3.6Z" fill="black"/>
<path d="M1.8 3.6C2.79411 3.6 3.6 2.79411 3.6 1.8C3.6 0.805887 2.79411 0 1.8 0C0.805887 0 0 0.805887 0 1.8C0 2.79411 0.805887 3.6 1.8 3.6Z" fill="black"/>
<path d="M16.2 3.6C17.1941 3.6 18 2.79411 18 1.8C18 0.805887 17.1941 0 16.2 0C15.2059 0 14.4 0.805887 14.4 1.8C14.4 2.79411 15.2059 3.6 16.2 3.6Z" fill="black"/>
</svg>
