<svg width="23" height="17" viewBox="0 0 23 17" fill="none" xmlns="http://www.w3.org/2000/svg">
<path d="M19.6643 16.332H3.25568C2.39253 16.331 1.56503 15.9877 0.954687 15.3774C0.344348 14.767 0.00101368 13.9395 0 13.0764V3.25568C0.00101368 2.39253 0.344348 1.56503 0.954687 0.954687C1.56503 0.344348 2.39253 0.00101368 3.25568 0H19.6643C20.5275 0.00101368 21.355 0.344348 21.9653 0.954687C22.5757 1.56503 22.919 2.39253 22.92 3.25568V13.0764C22.919 13.9395 22.5757 14.767 21.9653 15.3774C21.355 15.9877 20.5275 16.331 19.6643 16.332ZM3.25568 1.14907C2.69697 1.14907 2.16115 1.37101 1.76608 1.76608C1.37101 2.16115 1.14907 2.69697 1.14907 3.25568V13.0764C1.14907 13.6351 1.37101 14.1709 1.76608 14.566C2.16115 14.961 2.69697 15.183 3.25568 15.183H19.6643C20.223 15.183 20.7589 14.961 21.1539 14.566C21.549 14.1709 21.7709 13.6351 21.7709 13.0764V3.25568C21.7709 2.69697 21.549 2.16115 21.1539 1.76608C20.7589 1.37101 20.223 1.14907 19.6643 1.14907H3.25568Z" fill="#8C8C8C"/>
<path d="M11.46 10.3721C10.7513 10.3732 10.0615 10.1433 9.49512 9.71717L0.551565 2.95301C0.488375 2.90866 0.434771 2.85203 0.393954 2.7865C0.353137 2.72097 0.325944 2.64789 0.314001 2.57162C0.302057 2.49535 0.305607 2.41746 0.324438 2.34259C0.34327 2.26772 0.376997 2.19742 0.423604 2.13587C0.470212 2.07433 0.528745 2.02281 0.595707 1.98439C0.662669 1.94598 0.736687 1.92145 0.81334 1.91227C0.889993 1.9031 0.967708 1.90947 1.04185 1.931C1.11598 1.95253 1.18502 1.98878 1.24483 2.03758L10.1884 8.80941C10.5557 9.08357 11.0017 9.23169 11.46 9.23169C11.9183 9.23169 12.3644 9.08357 12.7317 8.80941L21.6752 2.03758C21.735 1.98878 21.8041 1.95253 21.8782 1.931C21.9523 1.90947 22.0301 1.9031 22.1067 1.91227C22.1834 1.92145 22.2574 1.94598 22.3243 1.98439C22.3913 2.02281 22.4498 2.07433 22.4964 2.13587C22.543 2.19742 22.5768 2.26772 22.5956 2.34259C22.6144 2.41746 22.618 2.49535 22.606 2.57162C22.5941 2.64789 22.5669 2.72097 22.5261 2.7865C22.4853 2.85203 22.4317 2.90866 22.3685 2.95301L13.4249 9.71717C12.8586 10.1433 12.1688 10.3732 11.46 10.3721Z" fill="#8C8C8C"/>
<path d="M0.80052 14.6084C0.683995 14.6085 0.570172 14.5733 0.474154 14.5072C0.378137 14.4412 0.304464 14.3476 0.262912 14.2387C0.221361 14.1298 0.213894 14.0109 0.241503 13.8977C0.269113 13.7845 0.330493 13.6823 0.417499 13.6048L7.4651 7.31945C7.57887 7.21787 7.72834 7.16564 7.88062 7.17426C8.0329 7.18288 8.17552 7.25164 8.2771 7.36541C8.37869 7.47919 8.43091 7.62865 8.42229 7.78094C8.41367 7.93322 8.34491 8.07583 8.23114 8.17742L1.18354 14.4628C1.07888 14.558 0.94201 14.61 0.80052 14.6084ZM22.1195 14.6084C21.978 14.61 21.8411 14.558 21.7365 14.4628L14.6889 8.17742C14.5751 8.07583 14.5064 7.93322 14.4977 7.78094C14.4891 7.62865 14.5413 7.47919 14.6429 7.36541C14.7445 7.25164 14.8871 7.18288 15.0394 7.17426C15.1917 7.16564 15.3412 7.21787 15.4549 7.31945L22.4987 13.6048C22.5857 13.6823 22.6471 13.7845 22.6747 13.8977C22.7023 14.0109 22.6948 14.1298 22.6533 14.2387C22.6117 14.3476 22.5381 14.4412 22.442 14.5072C22.346 14.5733 22.2322 14.6085 22.1157 14.6084H22.1195Z" fill="#8C8C8C"/>
</svg>
