<svg width="24" height="24" viewBox="0 0 24 24" fill="none" xmlns="http://www.w3.org/2000/svg">
<g clip-path="url(#clip0_36_215)">
<path d="M4.71 3.29019C4.61676 3.19695 4.50607 3.12299 4.38425 3.07253C4.26243 3.02207 4.13186 2.99609 4 2.99609C3.86814 2.99609 3.73758 3.02207 3.61575 3.07253C3.49393 3.12299 3.38324 3.19695 3.29 3.29019C3.1017 3.47849 2.99591 3.73388 2.99591 4.00019C2.99591 4.26649 3.1017 4.52188 3.29 4.71019L8.92 10.3402C8.56381 11.0028 8.43059 11.7626 8.54009 12.5068C8.64959 13.2511 8.99599 13.9403 9.52794 14.4722C10.0599 15.0042 10.7491 15.3506 11.4934 15.4601C12.2376 15.5696 12.9974 15.4364 13.66 15.0802L19.29 20.7102C19.383 20.8039 19.4936 20.8783 19.6154 20.9291C19.7373 20.9798 19.868 21.006 20 21.006C20.132 21.006 20.2627 20.9798 20.3846 20.9291C20.5064 20.8783 20.617 20.8039 20.71 20.7102C20.8037 20.6172 20.8781 20.5066 20.9289 20.3848C20.9797 20.2629 21.0058 20.1322 21.0058 20.0002C21.0058 19.8682 20.9797 19.7375 20.9289 19.6156C20.8781 19.4937 20.8037 19.3831 20.71 19.2902L4.71 3.29019ZM12 13.5002C11.6022 13.5002 11.2206 13.3422 10.9393 13.0608C10.658 12.7795 10.5 12.398 10.5 12.0002V11.9302L12.06 13.4902L12 13.5002Z" fill="#808080"/>
<path d="M12.22 16.9999C7.92001 17.0999 5.10001 13.4099 4.22001 11.9999C4.84648 11.0006 5.59937 10.0863 6.46001 9.27987L5.00001 7.86987C3.87133 8.93334 2.90442 10.1563 2.13001 11.4999C2.04224 11.6519 1.99603 11.8243 1.99603 11.9999C1.99603 12.1754 2.04224 12.3479 2.13001 12.4999C2.76001 13.5899 6.13001 18.9999 12.02 18.9999H12.27C13.3776 18.967 14.4708 18.7403 15.5 18.3299L13.92 16.7499C13.3644 16.896 12.7942 16.9799 12.22 16.9999ZM21.87 11.4999C21.23 10.3899 17.7 4.81987 11.73 4.99987C10.6225 5.03273 9.52924 5.25949 8.50001 5.66987L10.08 7.24987C10.6356 7.1037 11.2058 7.01985 11.78 6.99987C16.07 6.88987 18.89 10.5899 19.78 11.9999C19.1381 13.0022 18.3683 13.9165 17.49 14.7199L19 16.1299C20.1429 15.0692 21.1234 13.8461 21.91 12.4999C21.9918 12.3444 22.0311 12.1701 22.0241 11.9945C22.0171 11.819 21.9639 11.6484 21.87 11.4999Z" fill="#808080"/>
</g>
<defs>
<clipPath id="clip0_36_215">
<rect width="24" height="24" fill="white"/>
</clipPath>
</defs>
</svg>
