<svg width="29" height="28" viewBox="0 0 29 28" fill="none" xmlns="http://www.w3.org/2000/svg">
<path d="M25.3 0H2.7C1.2 0 0 1.2 0 2.7V25.4C0 26.8 1.2 28 2.7 28H25.4C26.9 28 28.1 26.8 28.1 25.3V2.7C28 1.2 26.8 0 25.3 0ZM2.7 2H25.4C25.7 2 26 2.3 26 2.7V8.6L23.9 6.5C22.9 5.5 21.2 5.5 20.1 6.5L15 11.6L12.9 9.5C11.9 8.5 10.2 8.5 9.1 9.5L2 16.6V2.7C2 2.3 2.3 2 2.7 2ZM25.3 26H2.7C2.3 26 2 25.7 2 25.3V19.4L10.5 10.9C10.8 10.6 11.2 10.6 11.4 10.9L20.2 19.7C20.4 19.9 20.7 20 20.9 20C21.1 20 21.4 19.9 21.6 19.7C22 19.3 22 18.7 21.6 18.3L16.4 13L21.5 7.9C21.8 7.6 22.2 7.6 22.4 7.9L25.7 11.2C25.8 11.3 25.8 11.3 25.9 11.3V25.3C26 25.7 25.7 26 25.3 26Z" fill="#004064"/>
<path d="M6 8H6.1C6.7 8 7.1 7.6 7.1 7C7.1 6.4 6.6 6 6.1 6H6C5.4 6 5 6.4 5 7C5 7.6 5.4 8 6 8Z" fill="#004064"/>
</svg>
