<svg width="19" height="19" viewBox="0 0 19 19" fill="none" xmlns="http://www.w3.org/2000/svg">
<path d="M9.5 0C6.98044 0 4.56408 1.00089 2.78249 2.78249C1.00089 4.56408 0 6.98044 0 9.5C0 12.0196 1.00089 14.4359 2.78249 16.2175C4.56408 17.9991 6.98044 19 9.5 19C12.0196 19 14.4359 17.9991 16.2175 16.2175C17.9991 14.4359 19 12.0196 19 9.5C19 6.98044 17.9991 4.56408 16.2175 2.78249C14.4359 1.00089 12.0196 0 9.5 0V0Z" fill="url(#paint0_linear_41_1201)"/>
<path d="M14.4424 8.71387C14.6514 8.85994 14.8438 9.00481 14.8438 9.51425C14.8438 10.0249 14.5718 10.2315 14.2809 10.3752C14.3996 10.5688 14.4376 10.8027 14.3866 11.0236C14.2951 11.4321 13.9211 11.7491 13.5886 11.8429C13.7323 12.0733 13.7774 12.3001 13.6064 12.5792C13.3867 12.9295 13.1955 13.0625 12.35 13.0625H8.90625C7.733 13.0625 7.125 12.4141 7.125 11.875V9.10219C7.125 7.64156 8.86706 6.40062 8.86706 5.38531L8.74119 4.12063C8.73525 4.04344 8.75069 3.85463 8.81006 3.8C8.90506 3.70619 9.1675 3.5625 9.56413 3.5625C9.823 3.5625 9.99519 3.61119 10.1983 3.70856C10.8882 4.0375 11.0675 4.86994 11.0675 5.53969C11.0675 5.8615 10.5759 6.82575 10.5094 7.15944C10.5094 7.15944 11.5389 6.93144 12.7407 6.92312C14.0006 6.916 14.8176 7.14875 14.8176 7.923C14.8176 8.23294 14.5576 8.54406 14.4424 8.71387ZM4.275 8.3125H5.225C5.41397 8.3125 5.59519 8.38757 5.72881 8.52119C5.86243 8.65481 5.9375 8.83603 5.9375 9.025V13.5375C5.9375 13.7265 5.86243 13.9077 5.72881 14.0413C5.59519 14.1749 5.41397 14.25 5.225 14.25H4.275C4.08603 14.25 3.90481 14.1749 3.77119 14.0413C3.63757 13.9077 3.5625 13.7265 3.5625 13.5375V9.025C3.5625 8.83603 3.63757 8.65481 3.77119 8.52119C3.90481 8.38757 4.08603 8.3125 4.275 8.3125Z" fill="white"/>
<defs>
<linearGradient id="paint0_linear_41_1201" x1="9.5" y1="0" x2="9.5" y2="19" gradientUnits="userSpaceOnUse">
<stop stop-color="#18AFFF"/>
<stop offset="1" stop-color="#0062DF"/>
</linearGradient>
</defs>
</svg>
