<svg width="16" height="19" viewBox="0 0 16 19" fill="none" xmlns="http://www.w3.org/2000/svg">
<path d="M1.55216 9.09492C0.90656 9.86903 0.484127 10.8044 0.330266 11.8006C0.176404 12.7968 0.296932 13.8161 0.678895 14.7489C1.06086 15.6817 1.68981 16.4928 2.49816 17.095C3.3065 17.6972 4.26367 18.0677 5.26679 18.1667C6.26991 18.2657 7.28104 18.0895 8.19152 17.6569C9.10199 17.2244 9.87737 16.5519 10.4343 15.7118C10.9913 14.8716 11.3087 13.8956 11.3526 12.8885C11.3965 11.8815 11.165 10.8815 10.6832 9.99616L15.864 3.7764C15.8817 3.75519 15.895 3.73069 15.9032 3.70432C15.9114 3.67795 15.9144 3.65023 15.9118 3.62273L15.6186 0.405182C15.6135 0.349647 15.5866 0.298398 15.5438 0.262707C15.5009 0.227016 15.4457 0.209804 15.3901 0.214854L12.2869 0.497691C12.2328 0.502616 12.1828 0.528264 12.1472 0.569263C12.1116 0.610263 12.0933 0.663438 12.096 0.717655L12.2159 3.10291C12.2173 3.13122 12.213 3.15953 12.2032 3.18614C12.1934 3.21274 12.1783 3.23709 12.1589 3.25772C12.1394 3.27834 12.116 3.29482 12.09 3.30616C12.064 3.31751 12.036 3.32347 12.0077 3.32371L9.93102 3.34118C9.87712 3.34164 9.82544 3.36278 9.78668 3.40024C9.74791 3.4377 9.72501 3.48862 9.72271 3.54248L9.60056 6.40748C9.5986 6.45353 9.58156 6.49766 9.55205 6.53308L8.50061 7.79539C7.37211 7.16981 6.06079 6.95732 4.79249 7.19452C3.52418 7.43173 2.37829 8.10378 1.55216 9.09492ZM5.81373 12.6446C6.0666 12.8552 6.25133 13.1361 6.34457 13.4517C6.4378 13.7673 6.43536 14.1035 6.33754 14.4177C6.23972 14.7319 6.05092 15.0101 5.79502 15.217C5.53912 15.4239 5.2276 15.5503 4.89987 15.5802C4.57214 15.61 4.2429 15.5421 3.95381 15.3848C3.66471 15.2276 3.42874 14.9881 3.27572 14.6968C3.1227 14.4054 3.05952 14.0753 3.09416 13.748C3.1288 13.4207 3.25971 13.1111 3.47033 12.8582C3.61017 12.6903 3.78172 12.5516 3.97517 12.45C4.16862 12.3484 4.38019 12.2859 4.59779 12.2661C4.8154 12.2462 5.03478 12.2695 5.24341 12.3344C5.45204 12.3994 5.64584 12.5048 5.81373 12.6446Z" fill="#2F2F2F"/>
</svg>
