<svg width="17" height="21" viewBox="0 0 17 21" fill="none" xmlns="http://www.w3.org/2000/svg">
<path d="M12.3077 9H4.69231C4.5087 9 4.33261 8.9138 4.20277 8.76036C4.07294 8.60692 4 8.39881 4 8.18182V5.31818C4 2.38582 6.01877 0 8.5 0C10.9812 0 13 2.38582 13 5.31818V8.18182C13 8.39881 12.9271 8.60692 12.7972 8.76036C12.6674 8.9138 12.4913 9 12.3077 9ZM5.38462 7.36364H11.6154V5.31818C11.6154 3.28827 10.2176 1.63636 8.5 1.63636C6.78238 1.63636 5.38462 3.28827 5.38462 5.31818V7.36364Z" fill="#8C8C8C"/>
<path d="M14.7826 21H2.21739C0.99487 21 0 19.9707 0 18.7059V10.2941C0 9.02929 0.99487 8 2.21739 8H14.7826C16.0051 8 17 9.02929 17 10.2941V18.7059C17 19.9707 16.0051 21 14.7826 21ZM2.21739 9.52941C2.02136 9.52941 1.83336 9.60998 1.69475 9.75339C1.55613 9.8968 1.47826 10.0913 1.47826 10.2941V18.7059C1.47826 18.9087 1.55613 19.1032 1.69475 19.2466C1.83336 19.39 2.02136 19.4706 2.21739 19.4706H14.7826C14.9786 19.4706 15.1666 19.39 15.3053 19.2466C15.4439 19.1032 15.5217 18.9087 15.5217 18.7059V10.2941C15.5217 10.0913 15.4439 9.8968 15.3053 9.75339C15.1666 9.60998 14.9786 9.52941 14.7826 9.52941H2.21739Z" fill="#8C8C8C"/>
</svg>
