<svg width="21" height="21" viewBox="0 0 21 21" fill="none" xmlns="http://www.w3.org/2000/svg">
<path d="M10.5 9.56472C10.303 9.56472 10.108 9.60185 9.92597 9.67398C9.74399 9.7461 9.57863 9.85183 9.43934 9.98511C9.30005 10.1184 9.18956 10.2766 9.11418 10.4507C9.0388 10.6249 9 10.8115 9 11C9 11.1885 9.0388 11.3751 9.11418 11.5493C9.18956 11.7234 9.30005 11.8816 9.43934 12.0149C9.57863 12.1482 9.74399 12.2539 9.92597 12.326C10.108 12.3982 10.303 12.4353 10.5 12.4353C10.8978 12.4352 11.2793 12.2839 11.5606 12.0147C11.8418 11.7454 11.9997 11.3803 11.9997 10.9997C11.9996 10.619 11.8414 10.254 11.5601 9.98487C11.2787 9.71577 10.8971 9.56463 10.4993 9.56472H10.5ZM10.5 7.86925C10.6969 7.86917 10.8918 7.83198 11.0737 7.7598C11.2556 7.68762 11.4208 7.58188 11.56 7.4486C11.6991 7.31532 11.8095 7.15712 11.8848 6.98303C11.96 6.80894 11.9987 6.62237 11.9986 6.43397C11.9985 6.24558 11.9597 6.05904 11.8842 5.88502C11.8088 5.71099 11.6983 5.55289 11.559 5.41973C11.4197 5.28657 11.2544 5.18097 11.0725 5.10896C10.8905 5.03694 10.6955 4.99991 10.4986 5C10.101 5.00017 9.71971 5.15149 9.43866 5.42065C9.15761 5.68982 8.99982 6.05479 9 6.43528C9.00018 6.81577 9.15832 7.1806 9.43962 7.44952C9.72093 7.71844 10.1024 7.86943 10.5 7.86925ZM10.5 14.1294C10.1022 14.1294 9.72064 14.2807 9.43934 14.5498C9.15804 14.819 9 15.1841 9 15.5647C9 15.9454 9.15804 16.3104 9.43934 16.5796C9.72064 16.8488 10.1022 17 10.5 17C10.8978 17 11.2794 16.8488 11.5607 16.5796C11.842 16.3104 12 15.9454 12 15.5647C12 15.1841 11.842 14.819 11.5607 14.5498C11.2794 14.2807 10.8978 14.1294 10.5 14.1294Z" fill="black"/>
<rect x="0.25" y="0.25" width="20.5" height="20.5" rx="4.75" stroke="black" stroke-opacity="0.45" stroke-width="0.5"/>
</svg>
