<svg width="88" height="14" viewBox="0 0 88 14" fill="none" xmlns="http://www.w3.org/2000/svg">
<path d="M9.192 1.004V10H8.009V3.292L5.019 10H4.187L1.184 3.279V10H0.00100009V1.004H1.275L4.603 8.44L7.931 1.004H9.192ZM17.3343 2.876L13.0443 13.354H11.8223L13.2263 9.922L10.3533 2.876H11.6663L13.9023 8.648L16.1123 2.876H17.3343ZM19.1345 1.719C18.9091 1.719 18.7185 1.641 18.5625 1.485C18.4065 1.329 18.3285 1.13833 18.3285 0.912999C18.3285 0.687666 18.4065 0.497 18.5625 0.341C18.7185 0.185 18.9091 0.107 19.1345 0.107C19.3511 0.107 19.5331 0.185 19.6805 0.341C19.8365 0.497 19.9145 0.687666 19.9145 0.912999C19.9145 1.13833 19.8365 1.329 19.6805 1.485C19.5331 1.641 19.3511 1.719 19.1345 1.719ZM19.7065 2.876V10H18.5235V2.876H19.7065ZM30.2897 2.746C30.8443 2.746 31.3383 2.863 31.7717 3.097C32.205 3.32233 32.5473 3.66467 32.7987 4.124C33.05 4.58333 33.1757 5.14233 33.1757 5.801V10H32.0057V5.97C32.0057 5.25933 31.828 4.71767 31.4727 4.345C31.126 3.96367 30.6537 3.773 30.0557 3.773C29.4403 3.773 28.9507 3.97233 28.5867 4.371C28.2227 4.761 28.0407 5.32867 28.0407 6.074V10H26.8707V5.97C26.8707 5.25933 26.693 4.71767 26.3377 4.345C25.991 3.96367 25.5187 3.773 24.9207 3.773C24.3053 3.773 23.8157 3.97233 23.4517 4.371C23.0877 4.761 22.9057 5.32867 22.9057 6.074V10H21.7227V2.876H22.9057V3.903C23.1397 3.53033 23.4517 3.24433 23.8417 3.045C24.2403 2.84567 24.678 2.746 25.1547 2.746C25.7527 2.746 26.2813 2.88033 26.7407 3.149C27.2 3.41767 27.5423 3.812 27.7677 4.332C27.967 3.82933 28.2963 3.43933 28.7557 3.162C29.215 2.88467 29.7263 2.746 30.2897 2.746ZM34.6742 6.412C34.6742 5.684 34.8216 5.047 35.1162 4.501C35.4109 3.94633 35.8139 3.51733 36.3252 3.214C36.8452 2.91067 37.4216 2.759 38.0542 2.759C38.6782 2.759 39.2199 2.89333 39.6792 3.162C40.1386 3.43067 40.4809 3.76867 40.7062 4.176V2.876H41.9022V10H40.7062V8.674C40.4722 9.09 40.1212 9.43667 39.6532 9.714C39.1939 9.98267 38.6566 10.117 38.0412 10.117C37.4086 10.117 36.8366 9.961 36.3252 9.649C35.8139 9.337 35.4109 8.89933 35.1162 8.336C34.8216 7.77267 34.6742 7.13133 34.6742 6.412ZM40.7062 6.425C40.7062 5.88767 40.5979 5.41967 40.3812 5.021C40.1646 4.62233 39.8699 4.319 39.4972 4.111C39.1332 3.89433 38.7302 3.786 38.2882 3.786C37.8462 3.786 37.4432 3.89 37.0792 4.098C36.7152 4.306 36.4249 4.60933 36.2082 5.008C35.9916 5.40667 35.8832 5.87467 35.8832 6.412C35.8832 6.958 35.9916 7.43467 36.2082 7.842C36.4249 8.24067 36.7152 8.54833 37.0792 8.765C37.4432 8.973 37.8462 9.077 38.2882 9.077C38.7302 9.077 39.1332 8.973 39.4972 8.765C39.8699 8.54833 40.1646 8.24067 40.3812 7.842C40.5979 7.43467 40.7062 6.96233 40.7062 6.425ZM46.8394 2.759C47.4547 2.759 47.9921 2.89333 48.4514 3.162C48.9194 3.43067 49.2661 3.76867 49.4914 4.176V2.876H50.6874V10.156C50.6874 10.806 50.5487 11.3823 50.2714 11.885C49.9941 12.3963 49.5954 12.795 49.0754 13.081C48.5641 13.367 47.9661 13.51 47.2814 13.51C46.3454 13.51 45.5654 13.289 44.9414 12.847C44.3174 12.405 43.9491 11.8027 43.8364 11.04H45.0064C45.1364 11.4733 45.4051 11.82 45.8124 12.08C46.2197 12.3487 46.7094 12.483 47.2814 12.483C47.9314 12.483 48.4601 12.2793 48.8674 11.872C49.2834 11.4647 49.4914 10.8927 49.4914 10.156V8.661C49.2574 9.077 48.9107 9.42367 48.4514 9.701C47.9921 9.97833 47.4547 10.117 46.8394 10.117C46.2067 10.117 45.6304 9.961 45.1104 9.649C44.5991 9.337 44.1961 8.89933 43.9014 8.336C43.6067 7.77267 43.4594 7.13133 43.4594 6.412C43.4594 5.684 43.6067 5.047 43.9014 4.501C44.1961 3.94633 44.5991 3.51733 45.1104 3.214C45.6304 2.91067 46.2067 2.759 46.8394 2.759ZM49.4914 6.425C49.4914 5.88767 49.3831 5.41967 49.1664 5.021C48.9497 4.62233 48.6551 4.319 48.2824 4.111C47.9184 3.89433 47.5154 3.786 47.0734 3.786C46.6314 3.786 46.2284 3.89 45.8644 4.098C45.5004 4.306 45.2101 4.60933 44.9934 5.008C44.7767 5.40667 44.6684 5.87467 44.6684 6.412C44.6684 6.958 44.7767 7.43467 44.9934 7.842C45.2101 8.24067 45.5004 8.54833 45.8644 8.765C46.2284 8.973 46.6314 9.077 47.0734 9.077C47.5154 9.077 47.9184 8.973 48.2824 8.765C48.6551 8.54833 48.9497 8.24067 49.1664 7.842C49.3831 7.43467 49.4914 6.96233 49.4914 6.425ZM59.1865 6.165C59.1865 6.39033 59.1735 6.62867 59.1475 6.88H53.4535C53.4969 7.582 53.7352 8.13233 54.1685 8.531C54.6105 8.921 55.1435 9.116 55.7675 9.116C56.2789 9.116 56.7035 8.999 57.0415 8.765C57.3882 8.52233 57.6309 8.20167 57.7695 7.803H59.0435C58.8529 8.48767 58.4715 9.04667 57.8995 9.48C57.3275 9.90467 56.6169 10.117 55.7675 10.117C55.0915 10.117 54.4849 9.96533 53.9475 9.662C53.4189 9.35867 53.0029 8.92967 52.6995 8.375C52.3962 7.81167 52.2445 7.16167 52.2445 6.425C52.2445 5.68833 52.3919 5.04267 52.6865 4.488C52.9812 3.93333 53.3929 3.50867 53.9215 3.214C54.4589 2.91067 55.0742 2.759 55.7675 2.759C56.4435 2.759 57.0415 2.90633 57.5615 3.201C58.0815 3.49567 58.4802 3.903 58.7575 4.423C59.0435 4.93433 59.1865 5.515 59.1865 6.165ZM57.9645 5.918C57.9645 5.46733 57.8649 5.08167 57.6655 4.761C57.4662 4.43167 57.1932 4.18467 56.8465 4.02C56.5085 3.84667 56.1315 3.76 55.7155 3.76C55.1175 3.76 54.6062 3.95067 54.1815 4.332C53.7655 4.71333 53.5272 5.242 53.4665 5.918H57.9645ZM61.1251 10.078C60.8997 10.078 60.7091 10 60.5531 9.844C60.3971 9.688 60.3191 9.49733 60.3191 9.272C60.3191 9.04667 60.3971 8.856 60.5531 8.7C60.7091 8.544 60.8997 8.466 61.1251 8.466C61.3417 8.466 61.5237 8.544 61.6711 8.7C61.8271 8.856 61.9051 9.04667 61.9051 9.272C61.9051 9.49733 61.8271 9.688 61.6711 9.844C61.5237 10 61.3417 10.078 61.1251 10.078ZM64.6606 4.189C64.8946 3.78167 65.2412 3.44367 65.7006 3.175C66.1686 2.89767 66.7102 2.759 67.3256 2.759C67.9582 2.759 68.5302 2.91067 69.0416 3.214C69.5616 3.51733 69.9689 3.94633 70.2636 4.501C70.5582 5.047 70.7056 5.684 70.7056 6.412C70.7056 7.13133 70.5582 7.77267 70.2636 8.336C69.9689 8.89933 69.5616 9.337 69.0416 9.649C68.5302 9.961 67.9582 10.117 67.3256 10.117C66.7189 10.117 66.1816 9.98267 65.7136 9.714C65.2542 9.43667 64.9032 9.09433 64.6606 8.687V13.38H63.4776V2.876H64.6606V4.189ZM69.4966 6.412C69.4966 5.87467 69.3882 5.40667 69.1716 5.008C68.9549 4.60933 68.6602 4.306 68.2876 4.098C67.9236 3.89 67.5206 3.786 67.0786 3.786C66.6452 3.786 66.2422 3.89433 65.8696 4.111C65.5056 4.319 65.2109 4.62667 64.9856 5.034C64.7689 5.43267 64.6606 5.89633 64.6606 6.425C64.6606 6.96233 64.7689 7.43467 64.9856 7.842C65.2109 8.24067 65.5056 8.54833 65.8696 8.765C66.2422 8.973 66.6452 9.077 67.0786 9.077C67.5206 9.077 67.9236 8.973 68.2876 8.765C68.6602 8.54833 68.9549 8.24067 69.1716 7.842C69.3882 7.43467 69.4966 6.958 69.4966 6.412ZM75.7337 2.746C76.6004 2.746 77.3024 3.01033 77.8397 3.539C78.3771 4.059 78.6457 4.813 78.6457 5.801V10H77.4757V5.97C77.4757 5.25933 77.2981 4.71767 76.9427 4.345C76.5874 3.96367 76.1021 3.773 75.4867 3.773C74.8627 3.773 74.3644 3.968 73.9917 4.358C73.6277 4.748 73.4457 5.31567 73.4457 6.061V10H72.2627V2.876H73.4457V3.89C73.6797 3.526 73.9961 3.24433 74.3947 3.045C74.8021 2.84567 75.2484 2.746 75.7337 2.746ZM83.5161 2.759C84.1315 2.759 84.6688 2.89333 85.1281 3.162C85.5961 3.43067 85.9428 3.76867 86.1681 4.176V2.876H87.3641V10.156C87.3641 10.806 87.2255 11.3823 86.9481 11.885C86.6708 12.3963 86.2721 12.795 85.7521 13.081C85.2408 13.367 84.6428 13.51 83.9581 13.51C83.0221 13.51 82.2421 13.289 81.6181 12.847C80.9941 12.405 80.6258 11.8027 80.5131 11.04H81.6831C81.8131 11.4733 82.0818 11.82 82.4891 12.08C82.8965 12.3487 83.3861 12.483 83.9581 12.483C84.6081 12.483 85.1368 12.2793 85.5441 11.872C85.9601 11.4647 86.1681 10.8927 86.1681 10.156V8.661C85.9341 9.077 85.5875 9.42367 85.1281 9.701C84.6688 9.97833 84.1315 10.117 83.5161 10.117C82.8835 10.117 82.3071 9.961 81.7871 9.649C81.2758 9.337 80.8728 8.89933 80.5781 8.336C80.2835 7.77267 80.1361 7.13133 80.1361 6.412C80.1361 5.684 80.2835 5.047 80.5781 4.501C80.8728 3.94633 81.2758 3.51733 81.7871 3.214C82.3071 2.91067 82.8835 2.759 83.5161 2.759ZM86.1681 6.425C86.1681 5.88767 86.0598 5.41967 85.8431 5.021C85.6265 4.62233 85.3318 4.319 84.9591 4.111C84.5951 3.89433 84.1921 3.786 83.7501 3.786C83.3081 3.786 82.9051 3.89 82.5411 4.098C82.1771 4.306 81.8868 4.60933 81.6701 5.008C81.4535 5.40667 81.3451 5.87467 81.3451 6.412C81.3451 6.958 81.4535 7.43467 81.6701 7.842C81.8868 8.24067 82.1771 8.54833 82.5411 8.765C82.9051 8.973 83.3081 9.077 83.7501 9.077C84.1921 9.077 84.5951 8.973 84.9591 8.765C85.3318 8.54833 85.6265 8.24067 85.8431 7.842C86.0598 7.43467 86.1681 6.96233 86.1681 6.425Z" fill="#885E88"/>
</svg>
