<svg width="28" height="31" viewBox="0 0 28 31" fill="none" xmlns="http://www.w3.org/2000/svg">
<path d="M27.5716 1.28721V29.4128C27.5716 29.7542 27.436 30.0816 27.1946 30.323C26.9532 30.5644 26.6258 30.7 26.2844 30.7H6.15245C5.81106 30.7 5.48365 30.5644 5.24225 30.323C5.00085 30.0816 4.86523 29.7542 4.86523 29.4128V9.61547L11.9449 0H26.2844C26.6258 0 26.9532 0.135617 27.1946 0.377016C27.436 0.618415 27.5716 0.945822 27.5716 1.28721Z" fill="#CACACA"/>
<path d="M11.9459 0.0126953V8.27016C11.9459 8.61155 11.8103 8.93896 11.5689 9.18036C11.3275 9.42175 11.0001 9.55737 10.6587 9.55737H4.89844L11.9459 0.0126953Z" fill="#DCEDFF"/>
<path d="M18.8705 17.5835H1.28721C0.576304 17.5835 0 18.1598 0 18.8707V25.3325C0 26.0434 0.576304 26.6197 1.28721 26.6197H18.8705C19.5814 26.6197 20.1577 26.0434 20.1577 25.3325V18.8707C20.1577 18.1598 19.5814 17.5835 18.8705 17.5835Z" fill="#FF3717"/>
<path d="M6.53882 22.6229V24.0131H5.41895V20.1965H6.9636C7.26425 20.1803 7.56489 20.2286 7.84534 20.3381C8.04494 20.4285 8.21301 20.5764 8.32804 20.7629C8.44446 20.9572 8.50462 21.18 8.50182 21.4065C8.50937 21.5708 8.48104 21.7348 8.4188 21.8871C8.35655 22.0394 8.26189 22.1763 8.1414 22.2883C7.87311 22.5216 7.52465 22.6416 7.16955 22.6229H6.53882ZM6.53882 21.8056H6.91211C7.24035 21.8056 7.40125 21.6768 7.40125 21.4258C7.40125 21.1748 7.25322 21.0654 6.95073 21.0654H6.53882V21.8056ZM8.92016 24.0131V20.1965H10.3297C10.5865 20.1772 10.8444 20.2184 11.0824 20.3167C11.3205 20.4151 11.5322 20.5679 11.7005 20.7629C12.0038 21.135 12.1657 21.6024 12.1575 22.0823C12.1847 22.5921 12.0088 23.092 11.6684 23.4725C11.5067 23.6517 11.3076 23.7931 11.0851 23.8865C10.8626 23.98 10.6223 24.0232 10.3811 24.0131H8.92016ZM10.04 23.1314H10.3297C10.426 23.1297 10.5201 23.1027 10.6026 23.0529C10.6851 23.0032 10.753 22.9326 10.7995 22.8482C10.9343 22.6163 10.9991 22.3503 10.9861 22.0823C10.9912 21.8318 10.9337 21.5841 10.8188 21.3615C10.7737 21.2708 10.7038 21.1949 10.6172 21.1425C10.5306 21.0901 10.4309 21.0633 10.3297 21.0654H10.04V23.1314ZM14.9057 22.5843H13.7215V24.0131H12.6338V20.1965H15.2661V21.104H13.7215V21.7476H14.9057V22.5843Z" fill="#EDEEEF"/>
</svg>
