<svg width="55" height="56" viewBox="0 0 55 56" fill="none" xmlns="http://www.w3.org/2000/svg">
<path d="M0 8.5C0 4.08172 3.58172 0.5 8 0.5H47C51.4183 0.5 55 4.08172 55 8.5V47.5C55 51.9183 51.4183 55.5 47 55.5H8C3.58172 55.5 0 51.9183 0 47.5V8.5Z" fill="#228BE2"/>
<path fill-rule="evenodd" clip-rule="evenodd" d="M17.4488 38.6576C17.457 38.6662 17.4655 38.6745 17.4742 38.6826C20.1827 41.3518 23.9004 43 28 43C32.0996 43 35.8173 41.3518 38.5265 38.6819C38.5346 38.6743 38.5427 38.6663 38.5506 38.6582C41.2974 35.9389 43 32.1667 43 28.0001C43 23.8334 41.2974 20.0612 38.5508 17.342L38.5086 17.3005C37.8109 16.6171 37.0497 16.0001 36.2339 15.463C34.8994 14.5843 33.425 13.9209 31.8814 13.5079C30.6161 13.1694 29.3094 13.0021 28 13C23.9004 13 20.1827 14.6482 17.4735 17.3181C17.4651 17.3259 17.4568 17.3341 17.4488 17.3424C14.7026 20.0612 13 23.8333 13 28C13 32.1667 14.7026 35.9388 17.4488 38.6576ZM22.1675 36.5777C21.139 36.9939 20.0902 37.5443 19.0316 38.2554C20.9793 39.9606 23.4172 41.1206 26.1051 41.4951C24.4156 39.8348 23.1264 38.1892 22.1675 36.5777ZM33.7922 36.6451C32.8375 38.2351 31.5609 39.8579 29.895 41.4951C32.5811 41.1207 35.0174 39.9621 36.9654 38.2579C36.3168 37.8387 35.2203 37.203 33.7922 36.6451ZM28.687 35.5004V40.7533C30.2941 39.2092 31.5326 37.6812 32.4626 36.1843C31.3364 35.8434 30.0648 35.582 28.687 35.5004ZM27.313 35.4814C26.0976 35.5199 24.8156 35.7095 23.4915 36.1101C24.4266 37.6308 25.6795 39.1836 27.313 40.7532V35.4814ZM37.9744 37.2796C40.0939 35.0028 41.4442 31.9998 41.609 28.687H36.2117C36.2038 29.0107 36.1853 29.3372 36.1555 29.6668C35.9884 31.5064 35.4692 33.4418 34.4606 35.436C36.1087 36.0991 37.3327 36.8474 37.9744 37.2796ZM21.5015 35.3606C20.5176 33.3926 20.0095 31.483 19.8445 29.6668C19.8147 29.3373 19.7962 29.0108 19.7883 28.687H14.391C14.5558 31.9993 15.9057 35.0018 18.0249 37.2789C19.1974 36.4662 20.3598 35.8371 21.5015 35.3606ZM33.1573 34.9644C34.1274 33.0917 34.6298 31.2748 34.7871 29.5425C34.8133 29.2547 34.83 28.9693 34.8379 28.687H28.687V34.1187C30.334 34.2107 31.8433 34.5408 33.1573 34.9644ZM27.313 34.0993V28.687H21.1621C21.17 28.9698 21.1867 29.2549 21.2129 29.5425C21.3678 31.2486 21.8576 33.037 22.7992 34.8799C24.3671 34.3716 25.8829 34.1392 27.313 34.0993ZM41.609 27.313C41.4442 24.0004 40.0941 20.9978 37.9744 18.7204C37.3088 19.1687 36.0171 19.9569 34.2755 20.6373C35.2569 22.5883 36.015 24.8451 36.1818 27.313H41.609ZM34.8077 27.313C34.6428 25.0082 33.9206 22.9041 32.9913 21.0883C31.7164 21.4864 30.2649 21.793 28.687 21.8812V27.313H34.8077ZM27.313 27.313V21.9007C25.9329 21.8621 24.4738 21.6445 22.9656 21.1731C22.0573 22.9688 21.3546 25.0436 21.1923 27.313H27.313ZM19.8183 27.313C19.9828 24.8783 20.723 22.649 21.6856 20.715C20.4859 20.2305 19.261 19.5778 18.025 18.7211C15.9058 20.9978 14.5558 24.0004 14.391 27.313H19.8183ZM27.313 15.255C26.3389 16.227 24.8926 17.8433 23.6465 19.9358C24.9159 20.3049 26.1449 20.4815 27.313 20.5186V15.255ZM28.687 15.2549V20.4995C30.0025 20.4217 31.2212 20.1799 32.3089 19.8614C31.0732 17.8053 29.6498 16.2156 28.687 15.2549ZM26.1433 14.4996C23.4409 14.8683 20.9894 16.0308 19.0317 17.7446C20.1506 18.4962 21.2588 19.0683 22.3438 19.4924C23.6072 17.311 25.0835 15.5931 26.1433 14.4996ZM29.8567 14.4996C30.9053 15.5818 32.3614 17.2746 33.6158 19.4228C35.1301 18.8491 36.2901 18.1785 36.9654 17.7421C35.0084 16.03 32.5579 14.8683 29.8567 14.4996Z" fill="white"/>
</svg>
